<?xml version="1.0" encoding="UTF-8"?>
<svg xmlns="http://www.w3.org/2000/svg" id="Layer_1" data-name="Layer 1" width="672.31" height="228.63" viewBox="0 0 672.31 228.63">
  <title>logo-dark-02</title>
  <path d="M233.13,133.25H162V95.39h71.09c8.48,0,11.94-6,7.71-13.35L201.17,13.35C196.94,6,186.54,0,178.06,0H76.88C68.41,0,58,6,53.77,13.35L3.18,101c-4.24,7.34-4.24,19.35,0,26.69l50.59,87.63c4.24,7.34,14.64,13.34,23.11,13.34H178.06c8.48,0,18.88-6,23.11-13.34l39.67-68.7C245.07,139.25,241.61,133.25,233.13,133.25Zm-158.26,0h-27V95.39h27Zm36.53,52.8a7.72,7.72,0,0,1-7.7,7.7H93.3a7.73,7.73,0,0,1-7.71-7.7V42.59a7.73,7.73,0,0,1,7.71-7.71h10.4a7.72,7.72,0,0,1,7.7,7.71Zm38.88,15.58a7.72,7.72,0,0,1-7.7,7.7H132.17a7.72,7.72,0,0,1-7.7-7.7V27a7.73,7.73,0,0,1,7.7-7.7h10.41a7.72,7.72,0,0,1,7.7,7.7Z" transform="translate(0)" style="fill:#0c0920"></path>
  <path d="M295.66,164.53a19.72,19.72,0,0,1-10.42-2.85,22,22,0,0,1-7.58-7.57,19.75,19.75,0,0,1-2.85-10.43V77.38A19.81,19.81,0,0,1,277.66,67a22.17,22.17,0,0,1,7.58-7.58,19.9,19.9,0,0,1,10.42-2.85h66.15a20.33,20.33,0,0,1,10.5,2.85A21.86,21.86,0,0,1,380,67a19.81,19.81,0,0,1,2.85,10.42v8.39h-20v-7.5a1.64,1.64,0,0,0-.6-1.27,2,2,0,0,0-1.35-.53h-64.5a1.82,1.82,0,0,0-1.8,1.8v64.5a1.79,1.79,0,0,0,1.78,1.8h64.6a2,2,0,0,0,1.35-.52,1.62,1.62,0,0,0,.6-1.28v-19.5H338.41v-20h44.4v40.35a19.77,19.77,0,0,1-2.87,10.49,21.59,21.59,0,0,1-7.65,7.57,20.09,20.09,0,0,1-10.5,2.85Z" transform="translate(0)" style="fill:#0c0920"></path>
  <path d="M439.51,164.53V124l-49.8-67.5h23.4l36.45,45.75,36-45.75h23.85l-50,67.65v40.35Z" transform="translate(0)" style="fill:#0c0920"></path>
  <path d="M516.31,164.53v-108h19.63v108Z" transform="translate(0)" style="fill:#0c0920"></path>
  <path d="M550.51,164.53v-108h21.75l39.15,46.65,39-46.65h21.9v108h-20V85.33l-40.95,48.75-41.1-48.6v79Z" transform="translate(0)" style="fill:#0c0920"></path>
</svg>
