<?xml version="1.0" encoding="UTF-8"?>
<svg xmlns="http://www.w3.org/2000/svg" id="Layer_1" data-name="Layer 1" width="672.31" height="228.63" viewBox="0 0 672.31 228.63">
  <title>logo</title>
  <path d="M471.19,583.48H400.1V545.62h71.09c8.48,0,11.94-6,7.71-13.35l-39.67-68.69c-4.23-7.34-14.63-13.35-23.11-13.35H314.94c-8.47,0-18.87,6-23.11,13.35L241.24,551.2c-4.24,7.34-4.24,19.35,0,26.69l50.59,87.63c4.24,7.34,14.64,13.34,23.11,13.34H416.12c8.48,0,18.88-6,23.11-13.34l39.67-68.7C483.13,589.48,479.67,583.48,471.19,583.48Zm-158.26,0h-27V545.62h27Zm36.53,52.8a7.72,7.72,0,0,1-7.7,7.7h-10.4a7.73,7.73,0,0,1-7.71-7.7V492.82a7.73,7.73,0,0,1,7.71-7.71h10.4a7.72,7.72,0,0,1,7.7,7.71Zm38.88,15.58a7.72,7.72,0,0,1-7.7,7.7H370.23a7.72,7.72,0,0,1-7.7-7.7V477.23a7.73,7.73,0,0,1,7.7-7.7h10.41a7.72,7.72,0,0,1,7.7,7.7Z" transform="translate(-238.06 -450.23)" style="fill:#f6fe84"></path>
  <path d="M533.72,614.76a19.69,19.69,0,0,1-10.42-2.85,21.89,21.89,0,0,1-7.58-7.57,19.79,19.79,0,0,1-2.85-10.43v-66.3a19.81,19.81,0,0,1,2.85-10.42,22.09,22.09,0,0,1,7.58-7.58,19.88,19.88,0,0,1,10.42-2.85h66.15a20.29,20.29,0,0,1,10.5,2.85,21.86,21.86,0,0,1,7.65,7.58,19.81,19.81,0,0,1,2.85,10.42V536h-20v-7.5a1.64,1.64,0,0,0-.6-1.27,2,2,0,0,0-1.35-.53h-64.5a1.81,1.81,0,0,0-1.8,1.8V593a1.79,1.79,0,0,0,1.8,1.8H599a2,2,0,0,0,1.35-.52,1.63,1.63,0,0,0,.6-1.28v-19.5H576.47v-20h44.4v40.35A19.79,19.79,0,0,1,618,604.34a21.67,21.67,0,0,1-7.65,7.57,20.1,20.1,0,0,1-10.5,2.85Z" transform="translate(-238.06 -450.23)" style="fill:#fff"></path>
  <path d="M677.57,614.76v-40.5l-49.8-67.5h23.4l36.45,45.75,36-45.75h23.85l-50,67.65v40.35Z" transform="translate(-238.06 -450.23)" style="fill:#fff"></path>
  <path d="M754.37,614.76v-108H774v108Z" transform="translate(-238.06 -450.23)" style="fill:#fff"></path>
  <path d="M788.57,614.76v-108h21.75l39.15,46.65,39-46.65h21.9v108h-20v-79.2l-40.95,48.75-41.1-48.6v79Z" transform="translate(-238.06 -450.23)" style="fill:#fff"></path>
</svg>
